<svg width="32" height="32" viewBox="0 0 32 32" fill="none" xmlns="http://www.w3.org/2000/svg">
<circle cx="16" cy="16" r="16" fill="#F5AC37"/>
<path d="M9.75 16c0-3.728 2.644-6.839 6.155-7.624v2.249c-2.361.744-4.093 2.968-4.093 5.625 0 2.657 1.732 4.881 4.093 5.625v2.249C12.394 22.839 9.75 19.728 9.75 16z" fill="#fff"/>
<path d="M16.25 8.376C19.761 9.161 22.405 12.272 22.405 16c0 3.728-2.644 6.839-6.155 7.624v-2.249c2.361-.744 4.093-2.968 4.093-5.625 0-2.657-1.732-4.881-4.093-5.625V8.376z" fill="#fff"/>
<path d="M9 16h14M9 13h14M9 19h14" stroke="#fff" stroke-width="1.5" stroke-linecap="round"/>
</svg>
