<svg width="32" height="32" viewBox="0 0 32 32" fill="none" xmlns="http://www.w3.org/2000/svg">
<circle cx="16" cy="16" r="16" fill="#2775CA"/>
<path d="M15.75 27.5c6.213 0 11.25-5.037 11.25-11.25S21.963 4.75 15.75 4.75 4.5 9.787 4.5 16s5.037 11.5 11.25 11.5z" fill="#2775CA"/>
<path d="M10.875 16.625c0-1.034.84-1.875 1.875-1.875h.938c.517 0 .937.42.937.938v1.874h1.25v-1.874c0-.518.42-.938.938-.938h.937c1.035 0 1.875.84 1.875 1.875v.938c0 .517-.42.937-.937.937h-1.875v1.25h1.875c.517 0 .937.42.937.938v.937c0 1.035-.84 1.875-1.875 1.875h-.937c-.518 0-.938-.42-.938-.937v-1.875h-1.25v1.875c0 .517-.42.937-.937.937h-.938c-1.034 0-1.875-.84-1.875-1.875v-.937c0-.518.42-.938.938-.938h1.875v-1.25h-1.875c-.518 0-.938-.42-.938-.937v-.938z" fill="#fff"/>
<path d="M16 9.5c1.864 0 3.5.756 4.596 2.154l-1.857 1.857C18.394 13.03 17.394 12.5 16.25 12.5c-1.795 0-3.25 1.455-3.25 3.25s1.455 3.25 3.25 3.25c1.144 0 2.144-.53 2.489-1.011l1.857 1.857C20.5 21.244 18.864 22 16 22c-3.314 0-6-2.686-6-6s2.686-6 6-6z" fill="#fff"/>
</svg>
