<svg width="32" height="32" viewBox="0 0 32 32" fill="none" xmlns="http://www.w3.org/2000/svg">
<circle cx="16" cy="16" r="16" fill="#26A17B"/>
<path d="M17.922 17.383v-.002c-.11.008-.677.042-1.942.042-1.01 0-1.721-.03-1.971-.042v.002c-3.888-.171-6.79-.848-6.79-1.658 0-.809 2.902-1.486 6.79-1.657v2.644c.25.018.982.061 1.988.061 1.207 0 1.812-.05 1.925-.06v-2.643c3.88.17 6.776.847 6.776 1.657 0 .81-2.895 1.485-6.776 1.656z" fill="#fff"/>
<path d="M17.922 15.725v-2.031h2.625v-2.219h-6.594v2.219h2.625v2.031c-4.094.196-7.15.936-7.15 1.81 0 .975 3.41 1.773 7.618 1.773 4.207 0 7.618-.798 7.618-1.773 0-.874-3.056-1.614-7.142-1.81z" fill="#fff"/>
</svg>
